<?xml version="1.0" encoding="UTF-8"?>
<svg version="1.1" xmlns="http://www.w3.org/2000/svg" width="256" height="256">
<path d="M0 0 C0.96558838 0.30550781 0.96558838 0.30550781 1.95068359 0.6171875 C18.05022561 5.79589349 32.90366961 13.92364222 46.39428711 24.06494141 C52.22425321 28.40651319 57.86591894 30.01312547 64.87646484 31.64770508 C90.19789071 37.6027058 114.58701913 48.89678246 128.75 71.75 C136.17285752 85.23683952 138.81628987 100.11553365 134.55932617 115.09594727 C130.15717389 128.57548619 121.65533224 138.71502882 109.125 145.3125 C103.57456703 147.91780527 97.9941317 149.73376245 92 151 C91.13890625 151.18433594 90.2778125 151.36867187 89.390625 151.55859375 C84.46799722 152.19944276 79.58489169 152.23411036 74.625 152.25 C73.56168457 152.25394775 72.49836914 152.25789551 71.40283203 152.26196289 C63.7287785 152.20571511 56.68834261 151.36008289 49.2421875 149.55859375 C43.68883399 148.60181116 39.41269222 150.11748271 34.19238281 152.01904297 C-0.13054519 164.44103807 -36.15960939 162.27601019 -69.25878906 147.28979492 C-82.60948096 141.01230769 -94.55689597 133.27286016 -106 124 C-107.42699219 122.89591797 -107.42699219 122.89591797 -108.8828125 121.76953125 C-119.32459243 113.65660311 -119.32459243 113.65660311 -120.9375 107.3125 C-120.65387067 103.09745296 -118.65837993 101.12400341 -115.6875 98.25 C-105.1696743 89.42375716 -93.02056342 82.55455506 -81 76 C-81.45890625 75.27296875 -81.9178125 74.5459375 -82.390625 73.796875 C-90.33035086 60.78639985 -95.50271036 46.75772298 -91.875 31.5 C-90.20183552 25.90193567 -87.63567426 21.54459283 -84 17 C-83.52046875 16.39542969 -83.0409375 15.79085937 -82.546875 15.16796875 C-62.8239513 -6.895807 -26.25130489 -8.70788102 0 0 Z " fill="#FF1D1F" transform="translate(120,50)"/>
<path d="M0 0 C8.44269111 2.96635093 15.37733416 8.09450948 22 14 C23.06541016 14.94166016 23.06541016 14.94166016 24.15234375 15.90234375 C33.14522815 24.34288208 41.08293318 36.39703981 42.41015625 48.84765625 C42.56049159 55.48202031 42.65418814 61.32970805 39 67 C36.5625 69.5 36.5625 69.5 34 71 C29.67008008 70.36626062 26.30442006 67.87798867 22.6875 65.5625 C21.98399414 65.11729004 21.28048828 64.67208008 20.55566406 64.21337891 C14.49697784 60.36068281 8.51013071 56.40253854 2.55859375 52.38671875 C0.23457872 50.81944807 -2.10443238 49.28140672 -4.46484375 47.76953125 C-5.52832031 47.08246094 -6.59179688 46.39539063 -7.6875 45.6875 C-8.61949219 45.09324219 -9.55148438 44.49898437 -10.51171875 43.88671875 C-16.46887964 39.3697506 -18.72721634 34.17304507 -20 27 C-21.44856543 11.1759972 -21.44856543 11.1759972 -16.484375 4.48046875 C-11.33918949 -0.6511768 -7.10039555 -1.09445587 0 0 Z " fill="#FFF8F8" transform="translate(75,89)"/>
<path d="M0 0 C3.69903077 2.46602052 4.349471 4.97378586 5.6875 9 C5.91244141 9.64195313 6.13738281 10.28390625 6.36914062 10.9453125 C8 15.68422302 8 15.68422302 8 18 C8.83144531 17.55527344 9.66289063 17.11054687 10.51953125 16.65234375 C11.60621094 16.08644531 12.69289063 15.52054688 13.8125 14.9375 C14.89144531 14.36902344 15.97039062 13.80054687 17.08203125 13.21484375 C20 12 20 12 23 13 C24.24267578 15.86401367 24.24267578 15.86401367 25.4453125 19.66796875 C25.66065643 20.34040115 25.87600037 21.01283356 26.09786987 21.7056427 C26.55220804 23.13212499 27.00071227 24.56047644 27.44384766 25.99047852 C28.11806356 28.16512686 28.80923614 30.33376279 29.50390625 32.50195312 C29.94372321 33.89030391 30.38255653 35.27896675 30.8203125 36.66796875 C31.02447784 37.31195114 31.22864319 37.95593353 31.43899536 38.61943054 C32.60307276 42.39047869 33.44095559 46.09381786 34 50 C29.545 50.495 29.545 50.495 25 51 C22.18790111 42.71170852 19.59464711 34.35825056 17 26 C13.30098995 26 11.25963588 27.33550508 8 29 C7.34 29 6.68 29 6 29 C3.525 23.06 3.525 23.06 1 17 C-1.34914492 19.34914492 -1.73140357 20.95679446 -2.625 24.125 C-2.88539062 25.03507812 -3.14578125 25.94515625 -3.4140625 26.8828125 C-3.60742188 27.58148438 -3.80078125 28.28015625 -4 29 C-4.99 29 -5.98 29 -7 29 C-8.45703125 27.4609375 -8.45703125 27.4609375 -9.8125 25.375 C-10.27269531 24.70210937 -10.73289063 24.02921875 -11.20703125 23.3359375 C-12.3570824 19.94810208 -11.40612027 18.23895334 -10 15 C-8.90816518 12.90841281 -7.76045941 10.84516661 -6.5625 8.8125 C-5.96566406 7.78769531 -5.36882812 6.76289062 -4.75390625 5.70703125 C-3.30159594 3.46549218 -1.98056873 1.76252446 0 0 Z " fill="#FF2325" transform="translate(72,98)"/>
</svg>
